<svg data-name="レイヤー 1" xmlns="http://www.w3.org/2000/svg" width="627" height="246" viewBox="0 0 627 246"><defs><clipPath id="a"><path d="M111.783 62.115s7.294 1.562 9.633 4.817c2.77 3.853 2.65 8.188 2.408 11.8a33.93 33.93 0 0 1-2.107 8.31 8.274 8.274 0 0 1-5 1.865c-2.89 0-6.864-1.746-6.864-1.746s3.612-9.15 3.372-14.45a69.042 69.042 0 0 0-1.442-10.595z" fill="none"/></clipPath><clipPath id="b"><path d="M38.33 93.664s.24 8.068.842 12.042a72.813 72.813 0 0 0 2.408 8.91l11.8-.72s.24-4.818.482-9.153 2.29-12.043 2.29-12.043z" fill="none"/></clipPath><clipPath id="c"><path d="M587.335 62.115s7.294 1.562 9.633 4.817c2.77 3.853 2.65 8.188 2.408 11.8a33.93 33.93 0 0 1-2.107 8.31 8.274 8.274 0 0 1-5 1.865c-2.89 0-6.865-1.746-6.865-1.746s3.613-9.15 3.372-14.45a69.042 69.042 0 0 0-1.442-10.595z" fill="none"/></clipPath><clipPath id="d"><path d="M513.88 93.664s.242 8.068.844 12.042a72.813 72.813 0 0 0 2.408 8.91l11.8-.72s.24-4.818.482-9.153S531.7 92.7 531.7 92.7z" fill="none"/></clipPath><clipPath id="e"><path d="M233.53 116.45s8.58 1.837 11.332 5.666c3.258 4.533 3.117 9.633 2.833 13.883a39.917 39.917 0 0 1-2.48 9.774 9.734 9.734 0 0 1-5.878 2.2c-3.4 0-8.075-2.054-8.075-2.054s4.25-10.767 3.967-17a81.226 81.226 0 0 0-1.7-12.47z" fill="none"/></clipPath><clipPath id="f"><path d="M147.112 153.565s.283 9.492.992 14.167a85.662 85.662 0 0 0 2.833 10.483l13.883-.85s.283-5.667.567-10.767 2.692-14.167 2.692-14.167z" fill="none"/></clipPath><clipPath id="g"><path d="M488.508 116.45s8.58 1.837 11.333 5.666c3.26 4.533 3.118 9.633 2.834 13.883a39.917 39.917 0 0 1-2.48 9.774 9.734 9.734 0 0 1-5.878 2.2c-3.4 0-8.075-2.054-8.075-2.054s4.25-10.767 3.968-17a81.226 81.226 0 0 0-1.7-12.47z" fill="none"/></clipPath><clipPath id="h"><path d="M402.09 153.565s.284 9.492.993 14.167a85.662 85.662 0 0 0 2.833 10.483l13.883-.85s.282-5.667.566-10.767 2.692-14.167 2.692-14.167z" fill="none"/></clipPath><clipPath id="i"><path d="M364.314 146.394s10.1 2.162 13.333 6.667c3.833 5.334 3.667 11.334 3.333 16.334s-2.917 11.5-2.917 11.5a11.452 11.452 0 0 1-6.917 2.583c-4 0-9.5-2.417-9.5-2.417s5-12.667 4.667-20a95.56 95.56 0 0 0-2-14.666z" fill="none"/></clipPath><clipPath id="j"><path d="M262.648 190.06s.333 11.168 1.167 16.668a100.78 100.78 0 0 0 3.333 12.333l16.333-1s.334-6.666.668-12.666 3.167-16.667 3.167-16.667z" fill="none"/></clipPath></defs><title>アートボード 1</title><g data-name="やまぶき"><g data-name="shadow" fill="#c8c9ca"><path d="M75.57 123.803l14.854-6.082-14.703-3.104-.15 9.187M123.023 114.616c0 4.143-15.635 11.1-15.635 11.1l2.8-11.1s12.835-4.143 12.835 0z"/><ellipse cx="94.317" cy="112.038" rx="32.153" ry="5.726"/><path d="M123.94 109.807a100.467 100.467 0 0 1 9.358 3.684c1.967 1.126-.18 3.14-2.91 2.507l-11.018-2.56z"/></g><path d="M39.8 67.353l-21.942-9.03S11.424 56.277 13.7 51.1c1.987-4.516 10.175-.42 10.175-.42l21.254 8.91z" fill="#9e9f9f"/><path fill="#dbdcdc" d="M19.6 53.84l-2.507 2.24.203-3.406 2.624-2.18-.32 3.345M22.96 55.306l-2.506 2.24.203-3.406 2.624-2.18-.32 3.346M26.32 56.773l-2.506 2.24.204-3.406 2.624-2.18-.32 3.346M29.68 58.24l-2.505 2.24.203-3.407 2.624-2.18-.32 3.346M33.042 59.706l-2.506 2.24.203-3.406 2.623-2.18-.32 3.346M36.403 61.172l-2.507 2.24.204-3.405 2.624-2.18-.32 3.345"/><path fill="#3e3a39" d="M36.667 66.028l10.747 3.793 5.238-6.862-12.463-5.42-3.523 8.49M123.7 90.413s18.544 8.188 20.47 8.91 3.373 4.336 2.41 6.263-5.3 1.806-7.587.843-19.628-8.31-19.628-8.31a20.746 20.746 0 0 1 1.084-5.54c.85-1.806 3.25-2.167 3.25-2.167z"/><path d="M66.205 121.876c1.445 2.168 2.408 3.853 4.817 3.853s6.262-2.65 7.466-5.3 1.2-6.925-1.024-8.972-5.96-1.626-5.96-1.626z" fill="#f3d925"/><path fill="#717071" d="M42.243 53.264l-7.767 17.25 6.14 2.258 6.865-15.895-5.237-3.613"/><path d="M77.585 60.188c-9.874.723-23.843-2.65-30.827 4.335s-8.43 26.01-8.43 26.01l19.51 1.2.48-8.67s-2.89 16.617-2.89 22.88 0 14.208 2.168 18.062 5.3 4.576 8.91 4.335 8.19-5.54 9.393-9.633a8.54 8.54 0 0 0-1.025-7.1s2.168.783 7.466.783 9.996-.542 15.053-4.4S106 89.33 106 85.716s-2.408-14.45-2.408-14.45l1.565 16.5 3.733 1.325s5.173-8.19 5.3-13.967c.24-11.078-3.853-14.45-3.853-14.45z" fill="#221714"/><path d="M56.235 96.132s13.4 3.31 22.795 3.07 26.492-3.852 26.492-3.852v3.612a60.584 60.584 0 0 1-26.492 4.817c-14.932-.724-23.517-4.757-23.517-4.757z" fill="#f3d925"/><g clip-path="url(#a)"><path fill="#585757" d="M93.56 74.93l21.408-21.41 21.41 21.41-21.41 21.41z"/><path fill="#9e9f9f" d="M95.912 77.28l21.408-21.407.627.627L96.54 77.91zM99.128 80.498l21.41-21.41.626.627-21.41 21.41zM102.343 83.71l21.41-21.407.628.627-21.41 21.408zM105.56 86.927l21.406-21.41.628.626-21.407 21.41zM108.773 90.142l21.41-21.41.626.63L109.4 90.77zM111.99 93.36l21.405-21.41.628.626-21.407 21.41z"/><path fill="#9e9f9f" d="M111.988 56.5l.628-.627 21.408 21.408-.627.628zM108.774 59.715l.627-.627 21.41 21.41-.627.627zM105.56 62.93l.626-.628 21.41 21.41-.63.627zM102.345 66.145l.627-.627 21.407 21.41-.628.628zM99.127 69.362l.627-.628 21.41 21.408-.626.627zM95.913 72.577l.627-.628 21.41 21.408-.63.627z"/></g><path d="M111.3 59.466s5.057 9.152 3.853 17.1a29.1 29.1 0 0 1-6.262 13.607l-3.852-1.445s7.466-8.55 6.984-15.293a36.915 36.915 0 0 0-3.853-13.005zM41.82 117.807a15.354 15.354 0 0 1-.222-3.372c1.987-.12 9.775-1.385 11.18-.783s1.627 2.206 1.627 3.613a4.462 4.462 0 0 1-1.445 2.71s.323 1.463-1.686 3.07-4.7 1.024-6.623-.18a7.247 7.247 0 0 1-2.83-5.058z" fill="#f3d925"/><path d="M111.06 87.04a10.84 10.84 0 0 0 6.744 1.2c3.372-.722 4.335-2.167 4.335-2.167s3.37.6 3.852 2.047a6.292 6.292 0 0 1-.06 3.25s-3.552-.962-5 1.687-.36 6.02-.36 6.02a8.04 8.04 0 0 1-3.01.6c-1.687 0-4.577-.842-4.577-2.77s-4.576-7.284-4.576-7.284zM102.238 65.99c0 4.544-11.5 8.228-25.68 8.228s-25.678-3.684-25.678-8.23 11.5-8.228 25.68-8.228 25.678 3.684 25.678 8.23" fill="#f3d925"/><g data-name="head"><path d="M105.472 66.63a35.732 35.732 0 0 0 7.2-6.11c3.175-3.635 6.35-7.268 11.884-10.263s16.05-4.022 16.05-4.022-.964 1.917-.487 3.03a23.214 23.214 0 0 0 2.08 3.235s-7.76-1.684-14.93 1.824-7.69 3.51-10.3 6.028-11.758 7.866-11.758 7.866z" fill="#f3d925"/><path d="M106.762 64.926s1.632 1.127 5.195-.89 6.763-5 12.41-6.29a29.876 29.876 0 0 1 11.922.234 2.756 2.756 0 0 0-1.3 2.2 7.587 7.587 0 0 0 1.22 3.678s-7.26-3.168-11.074-2.814-7.4 2.54-10.114 4.09-8.888 2.108-8.574 1.77.318-1.98.318-1.98" fill="#f4e827"/><path d="M65.153 67.81c-16.607-.686-23.195-8.1-23.195-20.312s10.568-16.332 16.058-16.332 8.646.823 17.7.823 12.215-.824 17.7-.824 16.058 4.117 16.058 16.332S102.9 67.124 86.29 67.81z" fill="#eec6ae"/><path d="M63.018 49.177c0 3.1-1.694 5.617-3.783 5.617s-3.783-2.515-3.783-5.617 1.694-5.617 3.783-5.617 3.783 2.515 3.783 5.617" fill="#339cd0"/><path d="M64.3 47.41c.5 5.663-2.392 10.548-6.47 10.91s-7.79-3.932-8.3-9.6S51.93 38.18 56 37.817s7.79 3.933 8.3 9.6" fill="#fff"/><path d="M65.153 63.34c-15.51.01-23.194-3.628-23.194-15.843s10.566-16.33 16.056-16.33 8.646.822 17.7.822 12.215-.824 17.7-.824 16.058 4.117 16.058 16.332-8.1 15.853-23.194 15.842c-5.97 0-6.348-.336-10.568-.336s-4.392.33-10.568.336m55.31-26c0-29.233-27.175-32.665-44.742-32.665S30.978 8.108 30.978 37.342s16.744 33.68 44.742 33.68 44.742-4.447 44.742-33.68" fill="#221714"/><path d="M63.747 47.6c.33 3.7-1.423 6.88-3.915 7.1s-4.78-2.6-5.108-6.3 1.423-6.878 3.915-7.1 4.777 2.6 5.107 6.3" fill="#221714"/><path d="M63.206 44.3c.114 1.285-.494 2.39-1.36 2.467s-1.66-.9-1.775-2.188.496-2.39 1.36-2.468 1.66.9 1.776 2.188M86.935 47.41c-.5 5.663 2.392 10.548 6.47 10.91s7.79-3.932 8.3-9.6-2.393-10.546-6.47-10.91-7.79 3.934-8.3 9.6" fill="#fff"/><path d="M87.488 47.6c-.33 3.7 1.423 6.88 3.915 7.1s4.778-2.6 5.108-6.3-1.422-6.878-3.914-7.1-4.778 2.6-5.108 6.3" fill="#221714"/><path d="M95.4 27.22s-10.3 1.114-19.827 1.114-19.83-1.114-19.83-1.114a.293.293 0 0 1-.29-.292v-4.563a.293.293 0 0 1 .29-.292 169.8 169.8 0 0 0 19.828 1.114 169.793 169.793 0 0 0 19.83-1.114.293.293 0 0 1 .292.292v4.563a.293.293 0 0 1-.292.292" fill="#f3d925"/><path d="M55.7 26.782v-4.194c0-.206.077-.386.283-.335a15.258 15.258 0 0 0 1.776.232c.54.026 2.958.283 2.958.283v4.71s-4.35-.438-4.632-.464a.48.48 0 0 1-.386-.232M61.155 22.82v4.657l1.802.155v-4.684l-1.802-.13" fill="#fff" opacity=".6"/><path d="M82.6 4.877s12.525.523 15.613.623a89.944 89.944 0 0 1 14.05 1.44c4.94 1.03 9.4 2.163 8.2 3.6s-5.628.31-6.658 2.47c-1.2 2.517 1.994 6.67 1.994 6.67L81.912 4.678" fill="#221714"/><path d="M96.263 44.213c.114 1.285-.494 2.39-1.36 2.467s-1.66-.9-1.775-2.188.495-2.39 1.36-2.467 1.66.9 1.775 2.188" fill="#fff"/></g><path d="M92.757 121.6c0-.722-4.335-9.392-4.335-16.617s2.168-19.267 11.8-18.544 14.45 9.39 14.932 16.616-.963 16.858-2.89 18.3-19.507.244-19.507.244z" fill="#221714"/><path d="M102.21 120.276c7.225 0 10.175-.12 9.754 1.565-.653 2.613-4.215 6.383-9.03 6.383S93.62 124.1 92.756 121.6c-.602-1.745 9.453-1.324 9.453-1.324z" fill="#f3d925"/><g clip-path="url(#b)"><path fill="#585757" d="M25.163 103.347l21.41-21.41 21.41 21.41-21.41 21.41z"/><path fill="#9e9f9f" d="M27.516 105.7l21.41-21.41.626.628-21.41 21.408zM30.73 108.916l21.41-21.41.627.628-21.408 21.41zM33.946 112.13l21.41-21.408.627.627-21.41 21.407zM37.162 115.346L58.57 93.934l.626.628-21.406 21.41zM40.376 118.56l21.41-21.408.626.627-21.41 21.408zM43.593 121.777L65 100.367l.627.628-21.406 21.41z"/><path fill="#9e9f9f" d="M43.592 84.92l.628-.63 21.408 21.41-.627.627zM40.377 88.134l.627-.627 21.41 21.41-.628.626zM37.162 91.347l.627-.627 21.408 21.41-.627.627zM33.947 94.563l.628-.627 21.406 21.412-.626.627zM30.73 97.78l.628-.627 21.41 21.408-.627.628zM27.516 100.995l.627-.627 21.408 21.408-.626.628z"/></g><path d="M37.607 86.44s-.24 4.575-.24 5.3v2.648l19.506.482 1.927-6.745z" fill="#f3d925"/><g fill="#fff"><path d="M92.715 79.64c-.1 2.186-.973 3.393-2.4 3.393-1.256 0-2.218-1.177-2.443-3.3-.207-2.155.812-3.342 2.4-3.342 1.66-.002 2.54 1.204 2.443 3.25zm-3.874.1c.114 1.672.7 2.62 1.512 2.62.91 0 1.364-1.037 1.4-2.68.03-1.58-.435-2.62-1.512-2.62-.916 0-1.517.93-1.4 2.68zM96.02 77.307H96l-1.388.6-.135-.662 1.777-.752h.9l-1.054 6.43h-.843z"/></g><path d="M107.388 88.907a11.438 11.438 0 0 0-9.573-1.626c-6.743 1.867-9.03 12.585-9.03 12.585s4.4-9.392 9.753-10.326a46.635 46.635 0 0 1 8.85-.633z" fill="#3e3a39"/></g><g data-name="つつじ"><g data-name="shadow" fill="#c8c9ca"><path d="M551.123 123.803l14.852-6.082-14.703-3.104-.15 9.187M598.575 114.616c0 4.143-15.635 11.1-15.635 11.1l2.8-11.1s12.835-4.143 12.835 0z"/><ellipse cx="569.869" cy="112.038" rx="32.153" ry="5.726"/><path d="M599.49 109.807a100.467 100.467 0 0 1 9.36 3.684c1.966 1.126-.18 3.14-2.91 2.507l-11.02-2.56z"/></g><path d="M515.356 67.353l-21.946-9.03s-6.434-2.045-4.154-7.226c1.987-4.516 10.175-.42 10.175-.42l21.255 8.91z" fill="#9e9f9f"/><path fill="#dbdcdc" d="M495.15 53.84l-2.506 2.24.204-3.406 2.624-2.18-.32 3.345M498.51 55.306l-2.505 2.24.204-3.406 2.623-2.18-.322 3.346M501.872 56.773l-2.506 2.24.203-3.406 2.623-2.18-.32 3.346M505.233 58.24l-2.506 2.24.203-3.407 2.624-2.18-.32 3.346M508.594 59.706l-2.507 2.24.204-3.406 2.625-2.18-.32 3.346M511.954 61.172l-2.506 2.24.203-3.405 2.625-2.18-.32 3.345"/><path fill="#3e3a39" d="M512.22 66.028l10.746 3.793 5.238-6.862-12.463-5.42-3.52 8.49M599.256 90.413s18.544 8.187 20.47 8.91 3.373 4.335 2.41 6.262-5.3 1.806-7.587.843-19.63-8.31-19.63-8.31A20.746 20.746 0 0 1 596 92.58c.848-1.806 3.256-2.167 3.256-2.167z"/><path d="M541.757 121.876c1.445 2.168 2.408 3.853 4.817 3.853s6.262-2.65 7.466-5.3 1.2-6.925-1.024-8.972-5.96-1.626-5.96-1.626z" fill="#d5206d"/><path fill="#717071" d="M517.794 53.264l-7.767 17.25 6.14 2.258 6.865-15.895-5.238-3.613"/><path d="M553.136 60.188c-9.874.723-23.842-2.65-30.827 4.335s-8.43 26.01-8.43 26.01l19.507 1.2.482-8.67s-2.89 16.617-2.89 22.88 0 14.208 2.167 18.062 5.3 4.576 8.91 4.335 8.19-5.54 9.393-9.633a8.54 8.54 0 0 0-1.024-7.1s2.168.783 7.466.783 9.995-.542 15.052-4.4 8.61-18.665 8.61-22.277-2.408-14.45-2.408-14.45l1.565 16.5 3.734 1.325s5.173-8.19 5.3-13.968c.24-11.078-3.853-14.45-3.853-14.45z" fill="#221714"/><path d="M531.787 96.132s13.4 3.31 22.795 3.07 26.492-3.852 26.492-3.852v3.612a60.584 60.584 0 0 1-26.492 4.817c-14.932-.724-23.517-4.757-23.517-4.757z" fill="#d5206d"/><g clip-path="url(#c)"><path fill="#585757" d="M569.112 74.93l21.41-21.41 21.41 21.41-21.41 21.408z"/><path fill="#9e9f9f" d="M571.464 77.28l21.408-21.407.627.627-21.41 21.41zM574.68 80.5l21.41-21.41.627.627-21.408 21.41zM577.893 83.71l21.41-21.408.627.628-21.41 21.407zM581.108 86.925l21.407-21.41.627.626-21.406 21.412zM584.325 90.142l21.41-21.41.626.628-21.408 21.41zM587.542 93.36l21.407-21.41.626.627-21.407 21.41z"/><path fill="#9e9f9f" d="M587.54 56.5l.628-.628 21.408 21.408-.627.627zM584.325 59.716l.628-.627 21.41 21.408-.63.627zM581.107 62.927l.627-.627 21.41 21.41-.628.626zM577.898 66.148l.628-.627 21.406 21.412-.627.627zM574.68 69.363l.627-.627 21.41 21.407-.627.628zM571.465 72.576l.627-.628 21.41 21.41-.63.626z"/></g><path d="M586.853 59.466s5.058 9.152 3.853 17.1a29.1 29.1 0 0 1-6.262 13.607l-3.853-1.445s7.467-8.55 6.985-15.293a36.915 36.915 0 0 0-3.853-13.005zM517.373 117.807a15.354 15.354 0 0 1-.223-3.372c1.987-.12 9.775-1.385 11.18-.783s1.627 2.206 1.627 3.613a4.462 4.462 0 0 1-1.445 2.71s.323 1.463-1.686 3.07-4.7 1.024-6.623-.18a7.247 7.247 0 0 1-2.83-5.058z" fill="#d5206d"/><path d="M586.612 87.04a10.84 10.84 0 0 0 6.743 1.2c3.372-.722 4.335-2.167 4.335-2.167s3.372.6 3.853 2.047a6.292 6.292 0 0 1-.06 3.25s-3.552-.962-5 1.687-.36 6.02-.36 6.02a8.04 8.04 0 0 1-3.01.6c-1.687 0-4.577-.842-4.577-2.77s-4.576-7.284-4.576-7.284zM577.79 65.99c0 4.544-11.5 8.228-25.68 8.228s-25.678-3.684-25.678-8.23 11.5-8.228 25.68-8.228 25.678 3.684 25.678 8.23" fill="#d5206d"/><g data-name="head"><path d="M581.023 66.63a35.732 35.732 0 0 0 7.2-6.11c3.175-3.635 6.35-7.268 11.884-10.263s16.05-4.022 16.05-4.022-.964 1.917-.487 3.03a23.214 23.214 0 0 0 2.08 3.23s-7.76-1.683-14.93 1.825-7.69 3.51-10.3 6.028-11.76 7.866-11.76 7.866z" fill="#d5206d"/><path d="M582.313 64.926s1.632 1.127 5.195-.89 6.763-5 12.41-6.29a29.876 29.876 0 0 1 11.922.234 2.756 2.756 0 0 0-1.3 2.2 7.587 7.587 0 0 0 1.22 3.678s-7.26-3.168-11.073-2.814-7.4 2.54-10.114 4.09-8.89 2.11-8.573 1.766.318-1.98.318-1.98" fill="#d5206d"/><path d="M540.7 67.81c-16.607-.686-23.195-8.1-23.195-20.312s10.568-16.332 16.058-16.332 8.646.823 17.7.823 12.215-.824 17.7-.824 16.058 4.117 16.058 16.332-6.573 19.626-23.18 20.312z" fill="#eec6ae"/><path d="M538.57 49.177c0 3.1-1.694 5.617-3.783 5.617S531 52.28 531 49.177s1.694-5.617 3.783-5.617 3.783 2.515 3.783 5.617" fill="#339cd0"/><path d="M539.852 47.41c.5 5.663-2.392 10.548-6.47 10.91s-7.79-3.932-8.3-9.6 2.393-10.546 6.47-10.91 7.79 3.934 8.3 9.6" fill="#fff"/><path d="M540.7 63.34c-15.5.01-23.19-3.627-23.19-15.84s10.568-16.332 16.058-16.332 8.646.823 17.7.823 12.215-.822 17.7-.822 16.058 4.117 16.058 16.332-8.1 15.853-23.194 15.842c-5.97 0-6.348-.336-10.568-.336s-4.392.33-10.568.336m55.31-26c0-29.233-27.175-32.665-44.742-32.665s-44.734 3.43-44.734 32.665 16.744 33.68 44.742 33.68 44.742-4.447 44.742-33.68" fill="#221714"/><path d="M539.3 47.6c.33 3.7-1.423 6.88-3.915 7.1s-4.78-2.6-5.108-6.3 1.423-6.878 3.915-7.1 4.778 2.6 5.108 6.3" fill="#221714"/><path d="M538.758 44.3c.114 1.285-.494 2.39-1.36 2.467s-1.66-.9-1.775-2.188.495-2.39 1.36-2.468 1.66.9 1.775 2.188M562.487 47.41c-.5 5.663 2.392 10.548 6.47 10.91s7.79-3.932 8.3-9.6-2.393-10.546-6.47-10.91-7.79 3.934-8.3 9.6" fill="#fff"/><path d="M563.04 47.6c-.33 3.7 1.423 6.88 3.915 7.1s4.778-2.6 5.108-6.3-1.423-6.878-3.915-7.1-4.778 2.6-5.108 6.3" fill="#221714"/><path d="M570.95 27.22s-10.3 1.114-19.827 1.114S531.3 27.22 531.3 27.22a.293.293 0 0 1-.292-.292v-4.563a.293.293 0 0 1 .292-.292 169.8 169.8 0 0 0 19.827 1.114 169.793 169.793 0 0 0 19.827-1.114.293.293 0 0 1 .292.292v4.563a.293.293 0 0 1-.292.292" fill="#d5206d"/><path d="M531.25 26.782v-4.194c0-.206.078-.386.284-.335a15.258 15.258 0 0 0 1.776.232c.54.026 2.96.283 2.96.283v4.71s-4.35-.438-4.633-.464a.48.48 0 0 1-.386-.232M536.707 22.82v4.657l1.8.155v-4.684l-1.8-.13" fill="#fff" opacity=".6"/><path d="M558.15 4.877s12.526.52 15.614.624a89.944 89.944 0 0 1 14.05 1.442c4.94 1.03 9.4 2.162 8.2 3.6s-5.628.31-6.658 2.47c-1.2 2.516 1.994 6.67 1.994 6.67L557.464 4.677" fill="#221714"/><path d="M571.814 44.213c.114 1.285-.494 2.39-1.36 2.467s-1.66-.9-1.775-2.188.494-2.39 1.36-2.467 1.66.9 1.774 2.188" fill="#fff"/></g><path d="M568.31 121.6c0-.722-4.336-9.392-4.336-16.617s2.168-19.267 11.8-18.544 14.45 9.39 14.932 16.616-.963 16.858-2.89 18.3-19.507.244-19.507.244z" fill="#221714"/><path d="M577.762 120.276c7.225 0 10.175-.12 9.754 1.565-.653 2.613-4.215 6.383-9.03 6.383s-9.313-4.118-10.176-6.623c-.603-1.745 9.452-1.324 9.452-1.324z" fill="#d5206d"/><g clip-path="url(#d)"><path fill="#585757" d="M500.716 103.35l21.41-21.41 21.408 21.41-21.41 21.408z"/><path fill="#9e9f9f" d="M503.066 105.7l21.41-21.408.626.627-21.408 21.407zM506.285 108.92l21.41-21.41.626.627-21.408 21.41zM509.496 112.128l21.41-21.408.628.627-21.41 21.408zM512.712 115.343l21.407-21.41.626.626-21.407 21.41zM515.928 118.56l21.41-21.408.626.627-21.41 21.408zM519.145 121.78l21.407-21.41.627.626-21.408 21.41z"/><path fill="#9e9f9f" d="M519.144 84.918l.627-.627 21.41 21.41-.628.627zM515.93 88.133l.626-.627 21.41 21.41-.628.626zM512.71 91.346l.628-.627 21.408 21.408-.627.627zM509.5 94.566l.628-.627 21.407 21.41-.627.628zM506.283 97.78l.627-.626 21.41 21.408-.627.627zM503.068 100.994l.627-.627 21.408 21.408-.627.628z"/></g><path d="M513.158 86.44s-.24 4.575-.24 5.3v2.648l19.507.482 1.927-6.743z" fill="#d5206d"/><g fill="#fff"><path d="M568.267 79.64c-.1 2.186-.973 3.393-2.4 3.393-1.256 0-2.218-1.177-2.443-3.3-.207-2.155.812-3.342 2.4-3.342 1.66-.002 2.54 1.204 2.443 3.25zm-3.874.1c.113 1.672.7 2.62 1.51 2.62.91 0 1.364-1.037 1.396-2.68.03-1.58-.436-2.62-1.513-2.62-.912 0-1.512.93-1.395 2.68zM571.573 77.307h-.023l-1.388.6-.134-.662 1.772-.745h.9l-1.056 6.427h-.844z"/></g><path d="M582.94 88.907a11.438 11.438 0 0 0-9.574-1.626c-6.743 1.867-9.03 12.585-9.03 12.585s4.4-9.392 9.753-10.326a46.635 46.635 0 0 1 8.85-.633z" fill="#3e3a39"/></g><g data-name="あさぎ"><g data-name="shadow" fill="#c8c9ca"><path d="M190.927 189.024l17.473-7.156-17.297-3.653-.176 10.81M246.753 178.215c0 4.875-18.395 13.057-18.395 13.057l3.3-13.057s15.095-4.874 15.095 0z"/><ellipse cx="212.981" cy="175.182" rx="37.827" ry="6.737"/><path d="M247.83 172.557s8.696 3.01 11.01 4.334-.212 3.695-3.423 2.95l-12.963-3.013z"/></g><path d="M148.848 122.61l-25.82-10.624s-7.57-2.4-4.886-8.5c2.337-5.312 11.97-.5 11.97-.5l25 10.483z" fill="#9e9f9f"/><path fill="#dbdcdc" d="M125.077 106.713l-2.948 2.635.238-4.006 3.087-2.565-.378 3.936M129.03 108.438l-2.947 2.635.24-4.006 3.086-2.565-.38 3.936M132.985 110.164l-2.95 2.635.24-4.008 3.088-2.564-.378 3.936M136.94 111.89l-2.95 2.634.24-4.006 3.086-2.565-.377 3.936M140.892 113.615l-2.948 2.635.24-4.007 3.086-2.564-.378 3.935M144.846 115.34l-2.948 2.635.24-4.006 3.086-2.566-.378 3.936"/><path fill="#3e3a39" d="M145.157 121.053l12.644 4.462 6.164-8.075-14.663-6.375-4.143 9.988M247.554 149.74s21.817 9.633 24.083 10.483 3.967 5.1 2.833 7.367-6.233 2.125-8.925.992-23.092-9.775-23.092-9.775.283-4.392 1.275-6.517 3.826-2.55 3.826-2.55z"/><path d="M179.908 186.756c1.7 2.55 2.833 4.533 5.667 4.533s7.367-3.118 8.783-6.234 1.417-8.146-1.2-10.554-7.013-1.912-7.013-1.912z" fill="#1d95d4"/><path fill="#717071" d="M151.717 106.036l-9.138 20.294 7.224 2.656 8.075-18.7-6.163-4.25"/><path d="M193.3 114.182c-11.617.85-28.05-3.117-36.267 5.1s-9.917 30.6-9.917 30.6l22.95 1.417.567-10.2s-3.4 19.55-3.4 26.916 0 16.717 2.55 21.25 6.233 5.383 10.483 5.1 9.633-6.517 11.05-11.333a10.047 10.047 0 0 0-1.2-8.358s2.55.92 8.783.92 11.757-.637 17.707-5.17 10.13-21.958 10.13-26.208-2.834-17-2.834-17l1.842 19.408 4.392 1.558s6.086-9.635 6.233-16.433c.283-13.033-4.533-17-4.533-17z" fill="#221714"/><path d="M168.178 156.47s15.767 3.9 26.817 3.612 31.167-4.533 31.167-4.533v4.25A71.276 71.276 0 0 1 195 165.464c-17.567-.85-27.667-5.6-27.667-5.6z" fill="#1d95d4"/><g clip-path="url(#e)"><path fill="#585757" d="M212.09 131.524l25.187-25.187 25.187 25.187-25.187 25.187z"/><path fill="#9e9f9f" d="M214.857 134.293l25.187-25.187.738.738-25.186 25.187zM218.64 138.077l25.187-25.187.738.738-25.186 25.187zM222.422 141.855l25.19-25.185.737.738-25.19 25.185zM226.206 145.64l25.184-25.19.74.74-25.185 25.188zM229.988 149.422l25.187-25.187.74.738-25.19 25.187zM233.773 153.207l25.185-25.19.738.74-25.185 25.188z"/><path fill="#9e9f9f" d="M233.77 109.844l.74-.738 25.186 25.186-.74.74zM229.99 113.626l.737-.738 25.187 25.187-.738.738zM226.206 117.406l.738-.738 25.187 25.187-.738.74zM222.426 121.192l.738-.738 25.184 25.19-.74.737zM218.64 124.975l.737-.738 25.188 25.185-.737.737zM214.858 128.757l.738-.738 25.187 25.185-.74.74z"/></g><path d="M232.962 113.332s5.95 10.767 4.533 20.117a34.24 34.24 0 0 1-7.367 16.007l-4.533-1.7s8.783-10.058 8.217-17.992a43.43 43.43 0 0 0-4.533-15.3zM151.22 181.97a18.064 18.064 0 0 1-.26-3.967c2.337-.142 11.5-1.63 13.153-.92s1.912 2.6 1.912 4.25-1.7 3.187-1.7 3.187.38 1.722-1.983 3.613-5.525 1.2-7.792-.213c-1.95-1.22-3.05-3.825-3.33-5.95z" fill="#1d95d4"/><path d="M232.68 145.774s3.966 2.267 7.932 1.417 5.1-2.55 5.1-2.55 3.967.71 4.533 2.41a7.4 7.4 0 0 1-.07 3.824s-4.175-1.134-5.875 1.983-.425 7.083-.425 7.083a9.457 9.457 0 0 1-3.542.708c-1.983 0-5.383-.992-5.383-3.258s-5.383-8.57-5.383-8.57zM222.3 121.007c0 5.347-13.526 9.68-30.21 9.68s-30.21-4.333-30.21-9.68 13.526-9.68 30.21-9.68 30.21 4.333 30.21 9.68" fill="#1d95d4"/><g data-name="head"><path d="M226.1 121.76a42.038 42.038 0 0 0 8.47-7.188c3.737-4.275 7.472-8.55 13.983-12.073s18.884-4.732 18.884-4.732-1.136 2.255-.574 3.565a27.31 27.31 0 0 0 2.446 3.8s-9.13-1.98-17.565 2.146-9.046 4.13-12.113 7.09-13.833 9.254-13.833 9.254z" fill="#1d95d4"/><path d="M227.622 119.756s1.92 1.325 6.11-1.047 7.957-5.882 14.6-7.4 14.026.276 14.026.276a3.242 3.242 0 0 0-1.535 2.59c-.147 1.863 1.437 4.327 1.437 4.327s-8.543-3.727-13.03-3.31-8.71 2.99-11.9 4.81-10.455 2.48-10.086 2.083.375-2.328.375-2.328" fill="#1d95d4"/><path d="M178.67 123.15c-19.537-.808-27.288-9.527-27.288-23.9s12.433-19.215 18.89-19.215 10.173.97 20.83.97 14.37-.97 20.83-.97 18.89 4.844 18.89 19.214-7.75 23.09-27.288 23.9z" fill="#eec6ae"/><path d="M176.16 101.228c0 3.65-1.994 6.608-4.45 6.608s-4.45-2.96-4.45-6.608 1.992-6.608 4.45-6.608 4.45 2.958 4.45 6.608" fill="#339cd0"/><path d="M177.667 99.15c.593 6.663-2.814 12.41-7.61 12.837s-9.166-4.627-9.76-11.29 2.814-12.407 7.61-12.834 9.166 4.627 9.76 11.29" fill="#fff"/><path d="M178.67 117.89c-18.246.014-27.288-4.267-27.288-18.637s12.433-19.214 18.89-19.214 10.173.968 20.83.968 14.37-.97 20.83-.97 18.89 4.845 18.89 19.215-9.522 18.647-27.286 18.637c-7.024-.006-7.468-.4-12.433-.4s-5.167.39-12.433.4m65.07-30.59c0-34.392-31.97-38.43-52.638-38.43s-52.637 4.042-52.637 38.43 19.7 39.623 52.638 39.623S243.74 121.7 243.74 87.3" fill="#221714"/><path d="M177.016 99.368c.388 4.352-1.674 8.092-4.605 8.353s-5.62-3.055-6.01-7.407 1.676-8.092 4.607-8.353 5.622 3.056 6.01 7.408" fill="#221714"/><path d="M176.38 95.487c.134 1.512-.583 2.81-1.6 2.9s-1.954-1.062-2.09-2.574.583-2.81 1.6-2.9 1.954 1.062 2.09 2.574M204.3 99.15c-.593 6.663 2.814 12.41 7.61 12.837s9.167-4.627 9.76-11.29-2.814-12.407-7.61-12.834-9.166 4.627-9.76 11.29" fill="#fff"/><path d="M204.947 99.368c-.387 4.352 1.675 8.092 4.606 8.353s5.622-3.055 6.01-7.407-1.675-8.092-4.606-8.353-5.622 3.056-6.01 7.408" fill="#221714"/><path d="M214.253 75.4s-12.118 1.31-23.326 1.31S167.6 75.4 167.6 75.4a.344.344 0 0 1-.343-.343v-5.373a.344.344 0 0 1 .343-.343 199.764 199.764 0 0 0 23.326 1.31 199.757 199.757 0 0 0 23.326-1.31.344.344 0 0 1 .343.344v5.37a.344.344 0 0 1-.343.342" fill="#1d95d4"/><path d="M167.55 74.88v-4.933c0-.242.09-.454.332-.394a17.95 17.95 0 0 0 2.09.272c.635.03 3.48.333 3.48.333V75.7s-5.115-.515-5.448-.545a.565.565 0 0 1-.454-.272M173.967 70.22v5.48l2.12.18v-5.51l-2.12-.15" fill="#fff" opacity=".6"/><path d="M199.2 49.11s14.736.613 18.37.734a105.817 105.817 0 0 1 16.528 1.7c5.813 1.21 11.06 2.543 9.648 4.238s-6.62.363-7.83 2.906c-1.41 2.96 2.344 7.847 2.344 7.847l-39.873-17.66" fill="#221714"/><path d="M215.27 95.388c.135 1.512-.582 2.81-1.6 2.9s-1.953-1.062-2.088-2.574.582-2.81 1.6-2.9 1.953 1.062 2.088 2.574" fill="#fff"/></g><path d="M211.146 186.432c0-.85-5.1-11.05-5.1-19.55s2.55-22.667 13.883-21.817 17 11.05 17.566 19.55-1.133 19.833-3.4 21.533-22.95.284-22.95.284z" fill="#221714"/><path d="M222.267 184.874c8.5 0 11.97-.142 11.475 1.842-.768 3.073-4.958 7.508-10.625 7.508s-10.955-4.845-11.97-7.792c-.71-2.054 11.12-1.558 11.12-1.558z" fill="#1d95d4"/><g clip-path="url(#f)"><path fill="#585757" d="M131.623 164.96l25.187-25.19 25.187 25.19-25.187 25.186z"/><path fill="#9e9f9f" d="M134.39 167.725l25.188-25.186.738.737-25.187 25.186zM138.174 171.51l25.186-25.187.738.74-25.186 25.186zM141.955 175.29l25.19-25.186.737.738-25.188 25.185zM145.74 179.073l25.184-25.19.74.74-25.185 25.188zM149.522 182.856l25.187-25.187.737.737-25.187 25.187zM153.305 186.64l25.185-25.188.738.738-25.184 25.19z"/><path fill="#9e9f9f" d="M153.305 143.276l.738-.738 25.186 25.186-.74.738zM149.522 147.06l.738-.738 25.187 25.187-.738.737zM145.738 150.84l.738-.738 25.187 25.187-.738.737zM141.958 154.625l.738-.738 25.184 25.19-.738.737zM138.173 158.41l.737-.738 25.188 25.184-.737.738zM134.39 162.19l.74-.74 25.185 25.187-.738.738z"/></g><path d="M146.262 145.065s-.283 5.383-.283 6.233v3.117l22.95.567 2.266-7.933z" fill="#1d95d4"/><g fill="#fff"><path d="M211.093 137.068c-.123 2.57-1.144 3.988-2.82 3.988-1.476 0-2.608-1.383-2.87-3.883-.245-2.535.954-3.93 2.824-3.93 1.944 0 2.98 1.42 2.866 3.825zm-4.556.117c.132 1.965.827 3.08 1.777 3.08 1.07 0 1.6-1.22 1.64-3.15.037-1.86-.512-3.08-1.778-3.08-1.076 0-1.776 1.092-1.64 3.15zM214.984 134.325h-.028l-1.632.71-.16-.78 2.09-.884h1.06l-1.24 7.56h-.993z"/></g><path d="M228.358 147.97a13.457 13.457 0 0 0-11.263-1.912c-7.933 2.2-10.625 14.8-10.625 14.8s5.17-11.05 11.475-12.148a54.865 54.865 0 0 1 10.413-.74z" fill="#3e3a39"/></g><g data-name="ゆずは"><g data-name="shadow" fill="#c8c9ca"><path d="M445.906 189.024l17.473-7.156-17.3-3.653-.174 10.81M501.732 178.215c0 4.875-18.395 13.057-18.395 13.057l3.3-13.057s15.095-4.874 15.095 0z"/><ellipse cx="467.96" cy="175.182" rx="37.827" ry="6.737"/><path d="M502.81 172.557s8.694 3.01 11.008 4.334-.212 3.695-3.423 2.95l-12.963-3.013z"/></g><path d="M403.826 122.61l-25.82-10.624s-7.57-2.4-4.886-8.5c2.338-5.312 11.97-.5 11.97-.5l25 10.483z" fill="#9e9f9f"/><path fill="#dbdcdc" d="M380.056 106.713l-2.95 2.635.24-4.006 3.088-2.565-.378 3.936M384.01 108.438l-2.95 2.635.24-4.006 3.087-2.565-.377 3.936M387.964 110.164l-2.95 2.635.24-4.008 3.087-2.564-.376 3.936M391.917 111.89l-2.948 2.634.238-4.006 3.087-2.565-.378 3.936M395.87 113.615l-2.947 2.635.24-4.007 3.086-2.564-.38 3.935M399.825 115.34l-2.95 2.635.24-4.006 3.088-2.566-.378 3.936"/><path fill="#3e3a39" d="M400.136 121.053l12.644 4.462 6.162-8.075-14.662-6.375-4.144 9.988M502.533 149.74s21.817 9.633 24.083 10.483 3.967 5.1 2.833 7.367-6.234 2.125-8.926.992-23.092-9.775-23.092-9.775.283-4.392 1.275-6.517 3.826-2.55 3.826-2.55z"/><path d="M434.887 186.756c1.7 2.55 2.833 4.533 5.667 4.533s7.367-3.118 8.783-6.234 1.417-8.146-1.2-10.554-7.012-1.912-7.012-1.912z" fill="#0e8a3b"/><path fill="#717071" d="M406.695 106.036l-9.137 20.294 7.225 2.656 8.075-18.7-6.163-4.25"/><path d="M448.274 114.182c-11.617.85-28.05-3.117-36.267 5.1s-9.917 30.6-9.917 30.6l22.95 1.417.567-10.2s-3.4 19.55-3.4 26.916 0 16.717 2.55 21.25 6.233 5.383 10.483 5.1 9.633-6.517 11.05-11.333a10.047 10.047 0 0 0-1.2-8.358s2.55.92 8.783.92 11.758-.637 17.708-5.17 10.13-21.958 10.13-26.208-2.833-17-2.833-17l1.842 19.408 4.39 1.558s6.087-9.635 6.234-16.433c.283-13.033-4.533-17-4.533-17z" fill="#221714"/><path d="M423.157 156.47s15.767 3.9 26.817 3.612 31.167-4.533 31.167-4.533v4.25a71.276 71.276 0 0 1-31.166 5.666c-17.567-.85-27.667-5.6-27.667-5.6z" fill="#0e8a3b"/><g clip-path="url(#g)"><path fill="#585757" d="M467.07 131.525l25.186-25.187 25.187 25.187-25.187 25.187z"/><path fill="#9e9f9f" d="M469.837 134.292l25.186-25.186.74.738-25.188 25.186zM473.62 138.077l25.187-25.187.738.738-25.186 25.187zM477.4 141.855l25.188-25.186.738.738-25.188 25.185zM481.184 145.638l25.184-25.19.738.74-25.184 25.188zM484.966 149.423l25.187-25.187.738.738-25.186 25.187zM488.75 153.207l25.186-25.188.738.737-25.185 25.188z"/><path fill="#9e9f9f" d="M488.75 109.844l.738-.74 25.186 25.188-.738.738zM484.967 113.627l.74-.74 25.186 25.19-.738.737zM481.183 117.405l.738-.74 25.188 25.19-.738.737zM477.405 121.193l.738-.738 25.184 25.19-.738.737zM473.62 124.976l.737-.738 25.188 25.185-.738.738zM469.836 128.757l.74-.74 25.185 25.188-.737.738z"/></g><path d="M487.94 113.332s5.95 10.767 4.534 20.117a34.24 34.24 0 0 1-7.367 16.007l-4.533-1.7s8.783-10.058 8.217-17.992a43.43 43.43 0 0 0-4.532-15.3zM406.2 181.97a18.064 18.064 0 0 1-.262-3.967c2.337-.142 11.5-1.63 13.154-.92s1.912 2.6 1.912 4.25-1.7 3.187-1.7 3.187.38 1.722-1.983 3.613-5.524 1.2-7.79-.213c-1.95-1.22-3.047-3.825-3.33-5.95z" fill="#0e8a3b"/><path d="M487.658 145.774s3.967 2.267 7.933 1.417 5.1-2.55 5.1-2.55 3.968.71 4.534 2.41a7.4 7.4 0 0 1-.07 3.824s-4.18-1.133-5.88 1.983-.425 7.083-.425 7.083a9.457 9.457 0 0 1-3.543.708c-1.983 0-5.383-.992-5.383-3.258s-5.383-8.57-5.383-8.57zM477.278 121.007c0 5.347-13.526 9.68-30.21 9.68s-30.21-4.333-30.21-9.68 13.526-9.68 30.21-9.68 30.21 4.333 30.21 9.68" fill="#0e8a3b"/><g data-name="head"><path d="M481.082 121.76a42.038 42.038 0 0 0 8.47-7.188c3.737-4.275 7.472-8.55 13.983-12.073s18.884-4.732 18.884-4.732-1.137 2.255-.575 3.565a27.31 27.31 0 0 0 2.446 3.8s-9.127-1.98-17.563 2.146-9.046 4.13-12.113 7.09-13.833 9.254-13.833 9.254z" fill="#0e8a3b"/><path d="M482.6 119.756s1.92 1.325 6.11-1.047 7.957-5.882 14.6-7.4 14.026.276 14.026.276a3.242 3.242 0 0 0-1.535 2.59c-.146 1.863 1.438 4.327 1.438 4.327s-8.543-3.727-13.03-3.31-8.71 2.99-11.9 4.81-10.455 2.48-10.086 2.083.375-2.328.375-2.328" fill="#0e8a3b"/><path d="M433.648 123.15c-19.537-.808-27.288-9.527-27.288-23.9s12.433-19.215 18.89-19.215 10.173.97 20.83.97 14.37-.97 20.83-.97 18.89 4.847 18.89 19.217-7.75 23.09-27.288 23.9z" fill="#eec6ae"/><path d="M431.137 101.228c0 3.65-1.993 6.608-4.45 6.608s-4.45-2.96-4.45-6.608 1.993-6.608 4.45-6.608 4.45 2.958 4.45 6.608" fill="#339cd0"/><path d="M432.645 99.15c.593 6.663-2.814 12.41-7.61 12.837s-9.166-4.627-9.76-11.29 2.814-12.407 7.61-12.834 9.166 4.627 9.76 11.29" fill="#fff"/><path d="M433.648 117.89c-18.246.014-27.288-4.267-27.288-18.637s12.433-19.214 18.89-19.214 10.173.968 20.83.968 14.37-.97 20.83-.97 18.89 4.844 18.89 19.214-9.527 18.65-27.288 18.637c-7.024-.007-7.468-.4-12.433-.4s-5.168.39-12.434.4M498.72 87.3c0-34.392-31.97-38.43-52.64-38.43s-52.637 4.042-52.637 38.43 19.7 39.623 52.638 39.623 52.64-5.223 52.64-39.623" fill="#221714"/><path d="M431.994 99.368c.388 4.352-1.674 8.092-4.605 8.353s-5.623-3.055-6.01-7.407 1.674-8.092 4.605-8.353 5.622 3.056 6.01 7.408" fill="#221714"/><path d="M431.358 95.487c.135 1.512-.582 2.81-1.6 2.9s-1.953-1.062-2.088-2.574.582-2.81 1.6-2.9 1.953 1.062 2.088 2.574M459.275 99.15c-.593 6.663 2.814 12.41 7.61 12.837s9.167-4.627 9.76-11.29-2.814-12.407-7.61-12.834-9.166 4.627-9.76 11.29" fill="#fff"/><path d="M459.926 99.368c-.387 4.352 1.675 8.092 4.606 8.353s5.622-3.055 6.01-7.407-1.675-8.092-4.606-8.353-5.622 3.056-6.01 7.408" fill="#221714"/><path d="M469.23 75.4s-12.117 1.31-23.325 1.31-23.325-1.31-23.325-1.31a.344.344 0 0 1-.343-.343v-5.373a.344.344 0 0 1 .343-.343 199.764 199.764 0 0 0 23.326 1.31 199.757 199.757 0 0 0 23.326-1.31.344.344 0 0 1 .343.344v5.37a.344.344 0 0 1-.343.342" fill="#0e8a3b"/><path d="M422.527 74.88v-4.933c0-.242.09-.454.333-.394a17.95 17.95 0 0 0 2.09.272c.635.03 3.48.333 3.48.333V75.7s-5.115-.515-5.448-.545a.565.565 0 0 1-.454-.272M428.946 70.22v5.48l2.12.18v-5.51l-2.12-.15" fill="#fff" opacity=".6"/><path d="M454.174 49.11s14.736.613 18.37.734a105.817 105.817 0 0 1 16.528 1.7c5.813 1.21 11.06 2.543 9.648 4.238s-6.62.363-7.83 2.906c-1.41 2.96 2.344 7.847 2.344 7.847l-39.868-17.66" fill="#221714"/><path d="M470.25 95.388c.134 1.512-.583 2.81-1.6 2.9s-1.954-1.062-2.09-2.574.583-2.81 1.6-2.9 1.954 1.062 2.09 2.574" fill="#fff"/></g><path d="M466.124 186.432c0-.85-5.1-11.05-5.1-19.55s2.55-22.667 13.883-21.817 17 11.05 17.567 19.55-1.133 19.833-3.4 21.533-22.95.284-22.95.284z" fill="#221714"/><path d="M477.245 184.874c8.5 0 11.97-.142 11.475 1.842-.768 3.073-4.958 7.508-10.625 7.508s-10.955-4.845-11.97-7.792c-.71-2.054 11.12-1.558 11.12-1.558z" fill="#0e8a3b"/><g clip-path="url(#h)"><path fill="#585757" d="M386.603 164.958l25.187-25.187 25.187 25.188-25.187 25.187z"/><path fill="#9e9f9f" d="M389.37 167.726l25.186-25.187.738.737-25.186 25.187zM393.154 171.51l25.186-25.186.738.738-25.186 25.187zM396.933 175.288l25.19-25.185.737.738-25.188 25.187zM400.717 179.072l25.184-25.19.74.74-25.184 25.188zM404.5 182.856l25.187-25.188.74.74-25.188 25.186zM408.284 186.64l25.185-25.188.737.738-25.185 25.19z"/><path fill="#9e9f9f" d="M408.282 143.277l.74-.738 25.185 25.185-.738.74zM404.5 147.06l.738-.74 25.187 25.188-.738.74zM400.717 150.84l.738-.74 25.187 25.188-.74.738zM396.937 154.625l.74-.738 25.182 25.19-.74.737zM393.153 158.41l.737-.738 25.188 25.184-.737.738zM389.37 162.19l.738-.738 25.186 25.186-.738.74z"/></g><path d="M401.24 145.065s-.282 5.383-.282 6.233v3.117l22.95.567 2.267-7.933z" fill="#0e8a3b"/><g fill="#fff"><path d="M466.072 137.068c-.123 2.57-1.144 3.988-2.82 3.988-1.476 0-2.608-1.383-2.87-3.883-.245-2.535.954-3.93 2.824-3.93 1.943 0 2.98 1.42 2.866 3.825zm-4.556.117c.132 1.965.827 3.08 1.777 3.08 1.07 0 1.6-1.22 1.64-3.15.037-1.86-.512-3.08-1.778-3.08-1.072 0-1.778 1.092-1.64 3.15zM469.962 134.325h-.028l-1.632.71-.16-.78 2.09-.884h1.06l-1.24 7.56h-.993z"/></g><path d="M483.337 147.97a13.457 13.457 0 0 0-11.262-1.912c-7.933 2.2-10.625 14.8-10.625 14.8s5.17-11.05 11.475-12.148a54.865 54.865 0 0 1 10.412-.74z" fill="#3e3a39"/></g><g data-name="あかね"><g data-name="shadow" fill="#c8c9ca"><path d="M314.194 231.776l20.557-8.42-20.35-4.295-.206 12.716M379.872 219.06c0 5.736-21.64 15.362-21.64 15.362l3.877-15.36s17.762-5.736 17.762 0z"/><ellipse cx="340.14" cy="215.491" rx="44.503" ry="7.926"/><path d="M381.14 212.4s10.23 3.542 12.952 5.1-.25 4.346-4.027 3.468l-15.25-3.544z"/></g><path d="M264.69 153.644l-30.376-12.5s-8.905-2.828-5.75-10c2.75-6.25 14.083-.583 14.083-.583l29.417 12.334z" fill="#9e9f9f"/><path fill="#dbdcdc" d="M236.724 134.94l-3.47 3.1.283-4.713 3.63-3.018-.443 4.63M241.375 136.97l-3.468 3.1.28-4.713 3.633-3.018-.445 4.63M246.027 139l-3.47 3.1.283-4.713 3.63-3.018-.443 4.63M250.678 141.03l-3.468 3.1.28-4.713 3.633-3.018-.445 4.63M255.33 143.06l-3.47 3.1.283-4.713 3.63-3.018-.443 4.63M259.98 145.09l-3.467 3.1.28-4.714 3.633-3.017-.445 4.63"/><path fill="#3e3a39" d="M260.347 151.81l14.875 5.25 7.25-9.5-17.25-7.5-4.875 11.75M380.814 185.56s25.667 11.334 28.333 12.334 4.667 6 3.333 8.667-7.333 2.5-10.5 1.168-27.167-11.5-27.167-11.5.333-5.167 1.5-7.667 4.5-3 4.5-3z"/><path d="M301.23 229.11c2 3 3.334 5.332 6.668 5.332s8.667-3.667 10.333-7.333 1.668-9.584-1.416-12.418-8.25-2.25-8.25-2.25z" fill="#da3a2a"/><path fill="#717071" d="M268.064 134.144l-10.75 23.875 8.5 3.124 9.5-22-7.25-5"/><path d="M316.98 143.727c-13.666 1-33-3.667-42.666 6s-11.667 36-11.667 36l27 1.667.667-12s-4 23-4 31.667 0 19.668 3 25 7.333 6.334 12.333 6 11.333-7.666 13-13.332a11.82 11.82 0 0 0-1.417-9.833s3 1.083 10.333 1.083 13.833-.75 20.833-6.083 11.917-25.833 11.917-30.833-3.333-20-3.333-20l2.167 22.833 5.167 1.833s7.16-11.335 7.333-19.333c.333-15.333-5.333-20-5.333-20z" fill="#221714"/><path d="M287.43 193.477s18.55 4.583 31.55 4.25 36.668-5.333 36.668-5.333v5a83.854 83.854 0 0 1-36.667 6.667c-20.666-1-32.55-6.582-32.55-6.582z" fill="#da3a2a"/><g clip-path="url(#i)"><path fill="#585757" d="M339.093 164.13l29.63-29.63 29.632 29.63-29.63 29.632z"/><path fill="#9e9f9f" d="M342.347 167.386l29.63-29.63.87.867-29.632 29.63zM346.8 171.84l29.63-29.632.87.868-29.632 29.632zM351.247 176.284l29.633-29.63.87.87-29.635 29.628zM355.7 180.735l29.628-29.635.868.87-29.628 29.633zM360.148 185.186l29.632-29.63.868.867-29.63 29.63zM364.6 189.64l29.63-29.635.868.87-29.63 29.632z"/><path fill="#9e9f9f" d="M364.6 138.623l.868-.868 29.63 29.63-.867.87zM360.148 143.073l.868-.868 29.63 29.63-.867.87zM355.698 147.52l.868-.868 29.63 29.632-.868.87zM351.25 151.975l.87-.87 29.627 29.636-.87.87zM346.797 156.426l.87-.87 29.632 29.63-.87.87zM342.35 160.874l.867-.868 29.63 29.63-.867.87z"/></g><path d="M363.648 142.727s7 12.667 5.333 23.667a40.282 40.282 0 0 1-8.666 18.833l-5.333-2s10.334-11.833 9.668-21.167-5.333-18-5.333-18zM267.48 223.477a21.252 21.252 0 0 1-.307-4.667c2.75-.167 13.53-1.917 15.475-1.083s2.25 3.054 2.25 5-2 3.75-2 3.75.447 2.026-2.333 4.25-6.5 1.417-9.167-.25c-2.298-1.433-3.584-4.5-3.917-7z" fill="#da3a2a"/><path d="M363.314 180.894s4.667 2.667 9.333 1.667 6-3 6-3 4.667.834 5.333 2.834a8.708 8.708 0 0 1-.083 4.5s-4.917-1.333-6.917 2.333-.5 8.333-.5 8.333a11.126 11.126 0 0 1-4.167.833c-2.333 0-6.333-1.167-6.333-3.833s-6.333-10.083-6.333-10.083zM351.1 151.756c0 6.29-15.912 11.39-35.542 11.39s-35.542-5.1-35.542-11.39 15.912-11.39 35.542-11.39 35.542 5.1 35.542 11.39" fill="#da3a2a"/><g data-name="head"><path d="M355.58 152.643a49.456 49.456 0 0 0 9.965-8.457c4.395-5.03 8.79-10.058 16.45-14.2s22.215-5.566 22.215-5.566-1.336 2.653-.675 4.194a32.13 32.13 0 0 0 2.878 4.472s-10.74-2.33-20.664 2.525-10.643 4.86-14.25 8.344-16.275 10.887-16.275 10.887z" fill="#da3a2a"/><path d="M357.364 150.285s2.26 1.56 7.19-1.232 9.36-6.92 17.178-8.708 16.5.326 16.5.326a3.814 3.814 0 0 0-1.805 3.047c-.173 2.193 1.69 5.09 1.69 5.09s-10.05-4.384-15.328-3.9-10.248 3.518-14 5.662-12.3 2.917-11.87 2.45.442-2.74.442-2.74" fill="#da3a2a"/><path d="M299.774 154.277c-22.985-.95-32.1-11.208-32.1-28.114s14.626-22.605 22.226-22.605 11.967 1.14 24.5 1.14 16.907-1.14 24.5-1.14 22.225 5.7 22.225 22.605-9.118 27.164-32.1 28.114z" fill="#eec6ae"/><path d="M296.82 128.487c0 4.294-2.344 7.774-5.236 7.774s-5.236-3.48-5.236-7.773 2.344-7.774 5.236-7.774 5.236 3.48 5.236 7.774" fill="#339cd0"/><path d="M298.594 126.043c.7 7.837-3.31 14.6-8.954 15.1s-10.783-5.443-11.48-13.28 3.31-14.6 8.952-15.1 10.783 5.442 11.48 13.28" fill="#fff"/><path d="M299.774 148.09c-21.465.015-32.1-5.02-32.1-21.927s14.626-22.605 22.226-22.605 11.967 1.14 24.5 1.14 16.906-1.14 24.5-1.14 22.225 5.7 22.225 22.605-11.208 21.942-32.1 21.926c-8.263-.008-8.786-.466-14.627-.466s-6.08.46-14.627.465m76.555-35.984c0-40.46-37.612-45.21-61.927-45.21s-61.927 4.75-61.927 45.21 23.176 46.616 61.928 46.616 61.927-6.154 61.927-46.616" fill="#221714"/><path d="M297.828 126.3c.456 5.12-1.97 9.52-5.418 9.828s-6.614-3.6-7.07-8.715 1.97-9.52 5.418-9.827 6.614 3.595 7.07 8.715" fill="#221714"/><path d="M297.08 121.733c.157 1.78-.685 3.308-1.883 3.414s-2.3-1.25-2.456-3.028.685-3.31 1.884-3.415 2.3 1.25 2.456 3.028M329.923 126.043c-.7 7.837 3.31 14.6 8.954 15.1s10.783-5.443 11.48-13.28-3.31-14.6-8.952-15.1-10.783 5.442-11.48 13.28" fill="#fff"/><path d="M330.688 126.3c-.456 5.12 1.97 9.52 5.418 9.828s6.614-3.6 7.07-8.715-1.97-9.52-5.42-9.827-6.613 3.595-7.07 8.715" fill="#221714"/><path d="M341.636 98.1s-14.256 1.54-27.442 1.54-27.442-1.54-27.442-1.54a.405.405 0 0 1-.4-.4v-6.323a.405.405 0 0 1 .4-.4 235.017 235.017 0 0 0 27.442 1.54 235.008 235.008 0 0 0 27.442-1.54.4.4 0 0 1 .4.4v6.316a.4.4 0 0 1-.4.4" fill="#da3a2a"/><path d="M286.69 97.49v-5.804c0-.285.107-.534.392-.463a21.118 21.118 0 0 0 2.458.32c.748.037 4.1.393 4.1.393v6.518s-6.02-.605-6.41-.64a.664.664 0 0 1-.535-.322M294.24 92.006v6.447l2.494.214v-6.483l-2.493-.178" fill="#fff" opacity=".6"/><path d="M323.922 67.172s17.336.722 21.61.864a124.49 124.49 0 0 1 19.445 1.995c6.84 1.426 13.012 2.993 11.35 4.987s-7.79.427-9.213 3.42c-1.658 3.48 2.76 9.23 2.76 9.23L322.97 66.9" fill="#221714"/><path d="M342.833 121.617c.158 1.78-.684 3.308-1.882 3.414s-2.3-1.248-2.455-3.027.684-3.308 1.882-3.414 2.3 1.248 2.456 3.027" fill="#fff"/></g><path d="M337.98 228.727c0-1-6-13-6-23s3-26.667 16.334-25.667 20 13 20.667 23-1.332 23.333-4 25.333-27 .334-27 .334z" fill="#221714"/><path d="M351.064 226.894c10 0 14.083-.167 13.5 2.167-.9 3.617-5.833 8.834-12.5 8.834s-12.888-5.7-14.083-9.167c-.832-2.416 13.084-1.833 13.084-1.833z" fill="#da3a2a"/><g clip-path="url(#j)"><path fill="#585757" d="M244.425 203.464l29.63-29.632 29.632 29.632-29.63 29.63z"/><path fill="#9e9f9f" d="M247.68 206.72l29.633-29.632.868.868-29.63 29.632zM252.132 211.172l29.63-29.632.87.868L253 212.04zM256.58 215.618l29.634-29.63.868.87-29.633 29.628zM261.032 220.07l29.63-29.635.867.868-29.63 29.634zM265.48 224.52l29.633-29.632.868.868-29.63 29.632zM269.934 228.972l29.63-29.633.867.867-29.628 29.634z"/><path fill="#9e9f9f" d="M269.93 177.957l.87-.87 29.63 29.633-.867.868zM265.48 182.406l.87-.87 29.63 29.633-.867.867zM261.032 186.854l.868-.87 29.63 29.633-.868.868zM256.584 191.308l.868-.868 29.628 29.634-.868.868zM252.13 195.76l.87-.87 29.632 29.63-.868.87zM247.68 200.207l.87-.868 29.63 29.63-.867.87z"/></g><path d="M261.648 180.06s-.333 6.334-.333 7.334v3.667l27 .668 2.667-9.333z" fill="#da3a2a"/><g fill="#fff"><path d="M337.915 170.655c-.144 3.02-1.345 4.69-3.314 4.69-1.735 0-3.066-1.628-3.377-4.567-.287-2.98 1.123-4.62 3.323-4.62 2.284 0 3.505 1.667 3.37 4.497zm-5.357.137c.156 2.31.97 3.623 2.09 3.623 1.257 0 1.885-1.436 1.928-3.705.042-2.187-.6-3.623-2.09-3.623-1.26 0-2.086 1.285-1.928 3.705zM342.495 167.43h-.033l-1.92.833-.185-.916 2.457-1.04h1.247l-1.46 8.888h-1.166z"/></g><path d="M358.23 183.477a15.83 15.83 0 0 0-13.25-2.25c-9.332 2.583-12.5 17.417-12.5 17.417s6.084-13 13.5-14.292a64.547 64.547 0 0 1 12.25-.875z" fill="#3e3a39"/></g></svg>