<svg data-name="レイヤー 1" xmlns="http://www.w3.org/2000/svg" width="201" height="186" viewBox="0 0 201 186"><defs><clipPath id="a"><path d="M149 81.423s10.1 2.162 13.333 6.667c3.833 5.333 3.667 11.333 3.333 16.333s-2.917 11.5-2.917 11.5a11.452 11.452 0 0 1-6.918 2.583c-4 0-9.5-2.417-9.5-2.417s5-12.668 4.667-20a95.56 95.56 0 0 0-2-14.667z" fill="none"/></clipPath><clipPath id="b"><path d="M47.333 125.09s.333 11.166 1.167 16.666a100.78 100.78 0 0 0 3.333 12.333l16.333-1s.333-6.668.667-12.668S72 123.756 72 123.756z" fill="none"/></clipPath></defs><title>アートボード 2</title><g data-name="あかね"><g data-name="shadow" fill="#c8c9ca"><path d="M98.88 166.805l20.557-8.42-20.35-4.296-.207 12.715M164.557 154.09c0 5.734-21.64 15.36-21.64 15.36l3.877-15.36s17.763-5.735 17.763 0z"/><ellipse cx="124.826" cy="150.52" rx="44.503" ry="7.926"/><path d="M165.826 147.433s10.23 3.542 12.952 5.1-.25 4.346-4.027 3.468l-15.25-3.543z"/></g><path d="M49.375 88.673L19 76.173s-8.905-2.828-5.75-10c2.75-6.25 14.083-.583 14.083-.583L56.75 77.923z" fill="#9e9f9f"/><path fill="#dbdcdc" d="M21.41 69.97l-3.47 3.1.282-4.715 3.632-3.017-.444 4.63M26.06 72l-3.468 3.1.282-4.715 3.632-3.017-.445 4.63M30.713 74.03l-3.47 3.1.282-4.715 3.632-3.017-.444 4.63M35.364 76.06l-3.47 3.098.283-4.713 3.632-3.017-.446 4.63M40.016 78.09l-3.47 3.098.282-4.713 3.632-3.017-.444 4.63M44.667 80.12l-3.47 3.098.283-4.713 3.632-3.017-.445 4.63"/><path fill="#3e3a39" d="M45.033 86.84l14.875 5.25 7.25-9.5-17.25-7.5-4.875 11.75M165.5 120.59s25.667 11.332 28.333 12.332 4.667 6 3.333 8.667-7.333 2.5-10.5 1.166-27.167-11.5-27.167-11.5.332-5.167 1.5-7.667 4.5-3 4.5-3z"/><path d="M85.917 164.137c2 3 3.333 5.333 6.667 5.333s8.667-3.667 10.333-7.333 1.667-9.583-1.417-12.417-8.25-2.25-8.25-2.25z" fill="#da3a2a"/><path fill="#717071" d="M52.75 69.173L42 93.048l8.5 3.125 9.5-22-7.25-5"/><path d="M101.667 78.756c-13.667 1-33-3.667-42.667 6s-11.667 36-11.667 36l27 1.667.667-12s-4 23-4 31.667 0 19.667 3 25 7.333 6.333 12.333 6 11.333-7.667 13-13.333a11.82 11.82 0 0 0-1.417-9.833s3 1.083 10.333 1.083 13.832-.75 20.832-6.083S141 119.09 141 114.09s-3.333-20-3.333-20l2.167 22.832 5.166 1.834s7.16-11.335 7.333-19.333c.333-15.333-5.333-20-5.333-20z" fill="#221714"/><path d="M72.117 128.506s18.55 4.583 31.55 4.25 36.667-5.333 36.667-5.333v5a83.854 83.854 0 0 1-36.667 6.667c-20.667-1-32.55-6.583-32.55-6.583z" fill="#da3a2a"/><g clip-path="url(#a)"><path fill="#585757" d="M123.778 99.16l29.63-29.632 29.632 29.63-29.63 29.633z"/><path fill="#9e9f9f" d="M127.034 102.415l29.63-29.632.87.87-29.632 29.63zM131.484 106.866l29.63-29.632.87.868-29.63 29.632zM135.933 111.314l29.633-29.63.868.87L136.8 112.18zM140.386 115.765l29.628-29.634.87.87-29.63 29.633zM144.834 120.216l29.632-29.63.868.867-29.63 29.632zM149.286 124.667l29.63-29.633.867.868-29.63 29.633z"/><path fill="#9e9f9f" d="M149.284 73.652l.87-.868 29.63 29.63-.868.87zM144.834 78.102l.87-.87 29.63 29.633-.868.868zM140.384 82.55l.87-.867 29.63 29.63-.87.87zM135.936 87l.868-.867 29.628 29.635-.868.868zM131.483 91.453l.87-.868 29.632 29.63-.868.867zM127.033 95.902l.87-.87 29.63 29.633-.868.868z"/></g><path d="M148.333 77.756s7 12.667 5.333 23.667A40.282 40.282 0 0 1 145 120.256l-5.333-2S150 106.423 149.333 97.09s-5.333-18-5.333-18zM52.167 158.506a21.252 21.252 0 0 1-.308-4.667c2.75-.168 13.528-1.918 15.474-1.084s2.25 3.054 2.25 5-2 3.75-2 3.75.447 2.026-2.333 4.25-6.5 1.417-9.166-.25c-2.294-1.433-3.584-4.5-3.917-7z" fill="#da3a2a"/><path d="M148 115.923s4.667 2.667 9.333 1.667 6-3 6-3 4.667.833 5.333 2.833a8.708 8.708 0 0 1-.083 4.5s-4.917-1.333-6.917 2.333-.5 8.333-.5 8.333a11.126 11.126 0 0 1-4.167.832c-2.334 0-6.334-1.167-6.334-3.833s-6.333-10.084-6.333-10.084zM135.79 86.785c0 6.29-15.913 11.39-35.543 11.39s-35.542-5.1-35.542-11.39S80.618 75.4 100.247 75.4s35.542 5.1 35.542 11.39" fill="#da3a2a"/><g data-name="head"><path d="M140.264 87.67a49.456 49.456 0 0 0 9.966-8.456c4.395-5.03 8.79-10.058 16.45-14.2s22.22-5.57 22.22-5.57-1.336 2.654-.675 4.195a32.13 32.13 0 0 0 2.875 4.47s-10.74-2.33-20.664 2.525-10.642 4.86-14.25 8.343-16.274 10.887-16.274 10.887z" fill="#da3a2a"/><path d="M142.05 85.314s2.26 1.56 7.19-1.232 9.36-6.92 17.178-8.708 16.5.326 16.5.326a3.814 3.814 0 0 0-1.805 3.046c-.173 2.193 1.69 5.09 1.69 5.09s-10.05-4.384-15.328-3.9-10.247 3.518-14 5.662-12.3 2.918-11.868 2.45.44-2.74.44-2.74" fill="#da3a2a"/><path d="M84.46 89.306c-22.985-.95-32.1-11.208-32.1-28.114s14.623-22.605 22.222-22.605 11.967 1.14 24.5 1.14 16.907-1.14 24.5-1.14 22.225 5.7 22.225 22.605-9.118 27.164-32.1 28.114z" fill="#eec6ae"/><path d="M81.506 63.516c0 4.294-2.344 7.774-5.236 7.774s-5.236-3.48-5.236-7.774 2.344-7.774 5.236-7.774 5.236 3.48 5.236 7.774" fill="#339cd0"/><path d="M83.28 61.072c.7 7.837-3.312 14.6-8.955 15.1s-10.782-5.443-11.48-13.28 3.31-14.6 8.953-15.1 10.783 5.443 11.48 13.28" fill="#fff"/><path d="M84.46 83.118c-21.466.016-32.1-5.02-32.1-21.926S66.982 38.587 74.58 38.587s11.967 1.14 24.5 1.14 16.906-1.14 24.5-1.14 22.225 5.7 22.225 22.605-11.208 21.942-32.1 21.926c-8.263-.007-8.786-.465-14.627-.465s-6.08.46-14.627.465m76.554-35.983c0-40.46-37.612-45.21-61.927-45.21s-61.92 4.748-61.92 45.21S60.334 93.75 99.085 93.75s61.927-6.153 61.927-46.615" fill="#221714"/><path d="M82.514 61.328c.456 5.12-1.97 9.52-5.418 9.828s-6.614-3.6-7.07-8.715 1.97-9.52 5.418-9.826 6.614 3.595 7.07 8.715" fill="#221714"/><path d="M81.765 56.762c.158 1.78-.684 3.308-1.882 3.414s-2.3-1.25-2.456-3.028.684-3.308 1.883-3.414 2.3 1.25 2.456 3.028M114.61 61.072c-.7 7.837 3.31 14.6 8.953 15.1s10.783-5.443 11.48-13.28-3.31-14.6-8.952-15.1-10.782 5.442-11.48 13.28" fill="#fff"/><path d="M115.374 61.328c-.456 5.12 1.97 9.52 5.418 9.828s6.614-3.6 7.07-8.715-1.97-9.52-5.42-9.826-6.613 3.595-7.07 8.715" fill="#221714"/><path d="M126.322 33.125s-14.256 1.54-27.442 1.54-27.442-1.54-27.442-1.54a.405.405 0 0 1-.4-.4v-6.32a.405.405 0 0 1 .4-.4 235.017 235.017 0 0 0 27.442 1.538A235.008 235.008 0 0 0 126.322 26a.4.4 0 0 1 .4.4v6.316a.4.4 0 0 1-.4.4" fill="#da3a2a"/><path d="M71.376 32.52v-5.806c0-.285.107-.534.392-.463a21.118 21.118 0 0 0 2.458.322c.748.036 4.1.392 4.1.392v6.518s-6.02-.605-6.41-.64a.664.664 0 0 1-.535-.322M78.927 27.035v6.447l2.493.213v-6.482l-2.493-.178" fill="#fff" opacity=".6"/><path d="M108.608 2.2s17.336.722 21.61.864a124.49 124.49 0 0 1 19.445 1.995c6.84 1.424 13.012 2.99 11.35 4.985s-7.79.427-9.213 3.42c-1.658 3.48 2.76 9.23 2.76 9.23l-46.9-20.77" fill="#221714"/><path d="M127.52 56.645c.157 1.78-.685 3.308-1.883 3.414s-2.3-1.25-2.456-3.03.685-3.307 1.883-3.413 2.3 1.25 2.456 3.028" fill="#fff"/></g><path d="M122.667 163.756c0-1-6-13-6-23s3-26.667 16.333-25.667 20 13 20.667 23-1.333 23.332-4 25.332-27 .334-27 .334z" fill="#221714"/><path d="M135.75 161.923c10 0 14.083-.167 13.5 2.167-.9 3.616-5.833 8.833-12.5 8.833s-12.888-5.7-14.083-9.167c-.834-2.417 13.083-1.833 13.083-1.833z" fill="#da3a2a"/><g clip-path="url(#b)"><path fill="#585757" d="M29.11 138.492l29.632-29.63 29.632 29.63-29.632 29.63z"/><path fill="#9e9f9f" d="M32.366 141.748l29.632-29.63.868.867-29.63 29.63zM36.817 146.2l29.63-29.633.87.868-29.63 29.632zM41.267 150.646l29.634-29.63.87.87-29.634 29.63zM45.72 155.1l29.628-29.636.87.868-29.63 29.635zM50.168 159.55l29.63-29.632.87.868-29.632 29.63zM54.618 164l29.63-29.633.868.868-29.63 29.633z"/><path fill="#9e9f9f" d="M54.618 112.985l.868-.868 29.632 29.63-.87.87zM50.167 117.435l.87-.868 29.63 29.63-.868.87zM45.718 121.884l.868-.868 29.63 29.632-.868.868zM41.268 126.335l.868-.87 29.628 29.636-.868.87zM36.816 130.787l.868-.868 29.634 29.628-.87.868zM32.367 135.236l.868-.87L62.867 164l-.87.867z"/></g><path d="M46.333 115.09S46 121.422 46 122.422v3.667l27 .667 2.667-9.333z" fill="#da3a2a"/><g fill="#fff"><path d="M122.6 105.684c-.144 3.02-1.345 4.69-3.314 4.69-1.736 0-3.067-1.628-3.378-4.567-.287-2.98 1.123-4.62 3.323-4.62 2.286 0 3.506 1.667 3.37 4.497zm-5.357.137c.156 2.312.97 3.624 2.09 3.624 1.257 0 1.885-1.436 1.928-3.705.043-2.188-.6-3.624-2.09-3.624-1.26 0-2.09 1.284-1.926 3.705zM127.18 102.458h-.033l-1.92.834-.185-.916 2.457-1.04h1.246l-1.46 8.888h-1.167z"/></g><path d="M142.917 118.506a15.83 15.83 0 0 0-13.25-2.25c-9.333 2.583-12.5 17.417-12.5 17.417s6.083-13 13.5-14.292a64.547 64.547 0 0 1 12.25-.874z" fill="#3e3a39"/></g></svg>